<svg width="1458" height="1448" xmlns="http://www.w3.org/2000/svg" xmlns:xlink="http://www.w3.org/1999/xlink" xml:space="preserve" overflow="hidden"><defs><clipPath id="clip0"><rect x="430" y="715" width="1458" height="1448"/></clipPath><linearGradient x1="1159.25" y1="716.187" x2="1159.25" y2="2158.81" gradientUnits="userSpaceOnUse" spreadMethod="reflect" id="fill1"><stop offset="0" stop-color="#EE2E24" stop-opacity="1"/><stop offset="0.09" stop-color="#EE2E24" stop-opacity="1"/><stop offset="0.51" stop-color="#5A237E" stop-opacity="1"/><stop offset="1" stop-color="#009BDA" stop-opacity="1"/></linearGradient></defs><g clip-path="url(#clip0)" transform="translate(-430 -715)"><path d="M1169.61 716.188 1187.94 716.422 1206.29 717.125 1224.51 718.29 1242.61 719.911 1260.58 721.983 1278.41 724.499 1296.1 727.455 1313.64 730.844 1331.03 734.662 1348.26 738.901 1365.32 743.557 1382.21 748.624 1398.92 754.097 1415.45 759.968 1431.79 766.234 1447.94 772.887 1463.89 779.923 1479.69 787.363 1510.47 803.267 1540.43 820.638 1569.45 839.402 1597.5 859.515 1624.52 880.929 1650.47 903.601 1675.3 927.484 1698.99 952.534 1721.46 978.705 1742.7 1005.95 1762.63 1034.23 1781.24 1063.5 1798.46 1093.7 1814.25 1124.81 1828.55 1156.7 1835.17 1173.04 1841.38 1189.51 1847.2 1206.18 1852.62 1223.03 1857.65 1240.06 1862.26 1257.26 1866.47 1274.63 1870.25 1292.16 1873.61 1309.84 1876.54 1327.68 1879.03 1345.65 1881.09 1363.77 1882.69 1382.02 1883.85 1400.39 1884.54 1418.89 1884.78 1437.5 1884.54 1456.11 1883.85 1474.61 1882.69 1492.98 1881.09 1511.23 1879.03 1529.34 1876.54 1547.32 1873.61 1565.16 1870.25 1582.84 1866.47 1600.37 1862.26 1617.74 1857.65 1634.94 1852.62 1651.97 1847.2 1668.82 1841.38 1685.48 1835.17 1701.96 1828.55 1718.3 1814.25 1750.19 1798.46 1781.3 1781.24 1811.5 1762.63 1840.77 1742.7 1869.05 1721.46 1896.29 1698.99 1922.47 1675.3 1947.52 1650.47 1971.4 1624.52 1994.07 1597.5 2015.49 1569.45 2035.6 1540.43 2054.36 1510.47 2071.73 1479.69 2087.64 1463.89 2095.08 1447.94 2102.11 1431.79 2108.77 1415.45 2115.03 1398.92 2120.9 1382.21 2126.38 1365.32 2131.44 1348.26 2136.1 1331.03 2140.34 1313.64 2144.16 1296.1 2147.54 1278.41 2150.5 1260.58 2153.02 1242.61 2155.09 1224.51 2156.71 1206.29 2157.87 1187.94 2158.58 1169.48 2158.81 1151.02 2158.58 1132.68 2157.87 1114.45 2156.71 1096.35 2155.09 1078.38 2153.02 1060.55 2150.5 1042.86 2147.54 1025.32 2144.16 1007.93 2140.34 990.706 2136.1 973.645 2131.44 956.755 2126.38 940.043 2120.9 923.513 2115.03 907.172 2108.77 891.025 2102.11 875.077 2095.08 859.279 2087.64 828.49 2071.73 798.534 2054.36 769.512 2035.6 741.469 2015.49 714.449 1994.07 688.498 1971.4 663.659 1947.52 639.979 1922.47 617.5 1896.29 596.269 1869.05 576.329 1840.77 557.727 1811.5 540.505 1781.3 524.711 1750.19 510.414 1718.3 503.795 1701.96 497.584 1685.48 491.763 1668.82 486.339 1651.97 481.317 1634.94 476.701 1617.74 472.499 1600.37 468.715 1582.84 465.356 1565.16 462.426 1547.32 459.932 1529.34 457.878 1511.23 456.271 1492.98 455.117 1474.61 454.42 1456.11 454.187 1437.5 454.434 1418.54 455.174 1399.61 456.406 1380.73 458.126 1361.9 460.334 1343.14 463.027 1324.45 466.203 1305.84 469.86 1287.33 473.996 1268.92 478.609 1250.63 483.697 1232.45 489.258 1214.41 495.29 1196.51 501.791 1178.75 508.067 1162.91 527.242 1170.51 521.016 1186.22 521.112 1185.97 514.703 1203.47 514.792 1203.22 508.846 1220.87 508.928 1220.61 503.446 1238.4 503.522 1238.14 498.506 1256.06 498.575 1255.8 494.027 1273.83 494.09 1273.57 490.012 1291.72 490.068 1291.46 486.462 1309.71 486.511 1309.44 483.38 1327.79 483.422 1327.52 480.767 1345.94 480.802 1345.68 478.626 1364.18 478.653 1363.91 476.957 1382.47 476.978 1382.2 475.764 1400.82 475.778 1400.55 475.048 1419.21 475.055 1418.94 474.812 1437.63 474.812 1437.37 475.042 1455.72 475.035 1455.46 475.722 1473.7 475.709 1473.44 476.848 1491.56 476.828 1491.3 478.412 1509.29 478.387 1509.03 480.411 1526.89 480.379 1526.64 482.838 1544.36 482.799 1544.11 485.687 1561.69 485.642 1561.43 488.954 1578.87 488.903 1578.62 492.633 1595.89 492.576 1595.64 496.718 1612.76 496.655 1612.52 501.204 1629.47 501.135 1629.23 506.086 1646.01 506.011 1645.77 511.358 1662.38 511.277 1662.14 517.014 1678.57 516.928 1678.33 523.049 1694.57 522.958 1694.33 529.459 1710.38 529.311 1710.03 543.429 1741.53 543.214 1741.08 558.782 1771.74 558.546 1771.3 575.521 1801.07 575.266 1800.65 593.603 1829.49 593.328 1829.08 612.983 1856.96 612.69 1856.56 633.618 1883.42 633.307 1883.04 655.465 1908.84 655.135 1908.48 678.478 1933.17 678.132 1932.82 702.616 1956.36 702.253 1956.03 727.833 1978.38 727.453 1978.06 754.085 1999.17 753.69 1998.87 781.33 2018.69 780.919 2018.41 809.522 2036.91 809.096 2036.64 838.619 2053.76 838.178 2053.52 868.576 2069.23 868.236 2069.06 883.749 2076.36 883.519 2076.26 899.234 2083.19 899 2083.09 914.912 2089.65 914.675 2089.55 930.777 2095.73 930.537 2095.64 946.826 2101.42 946.583 2101.34 963.051 2106.73 962.805 2106.66 979.448 2111.65 979.2 2111.58 996.011 2116.17 995.76 2116.1 1012.74 2120.28 1012.48 2120.22 1029.62 2123.98 1029.36 2123.93 1046.65 2127.27 1046.39 2127.22 1063.82 2130.14 1063.56 2130.1 1081.13 2132.58 1080.87 2132.54 1098.58 2134.58 1098.32 2134.56 1116.16 2136.16 1115.9 2136.14 1133.86 2137.28 1133.6 2137.27 1151.68 2137.96 1151.42 2137.96 1169.61 2138.19 1169.35 2138.19 1187.55 2137.96 1187.28 2137.96 1205.37 2137.27 1205.1 2137.28 1223.07 2136.14 1222.8 2136.16 1240.64 2134.56 1240.38 2134.58 1258.09 2132.54 1257.83 2132.58 1275.4 2130.1 1275.14 2130.14 1292.58 2127.22 1292.32 2127.27 1309.6 2123.93 1309.35 2123.98 1326.48 2120.22 1326.23 2120.28 1343.2 2116.1 1342.95 2116.17 1359.76 2111.58 1359.52 2111.65 1376.16 2106.66 1375.91 2106.73 1392.38 2101.34 1392.14 2101.42 1408.43 2095.64 1408.19 2095.73 1424.29 2089.55 1424.05 2089.65 1439.96 2083.09 1439.73 2083.19 1455.45 2076.26 1455.21 2076.36 1470.73 2069.06 1470.39 2069.23 1500.79 2053.52 1500.35 2053.76 1529.87 2036.64 1529.44 2036.91 1558.05 2018.41 1557.63 2018.69 1585.27 1998.87 1584.88 1999.17 1611.51 1978.06 1611.13 1978.38 1636.71 1956.03 1636.35 1956.36 1660.83 1932.82 1660.49 1933.17 1683.83 1908.48 1683.5 1908.84 1705.66 1883.04 1705.35 1883.42 1726.27 1856.56 1725.98 1856.96 1745.64 1829.08 1745.36 1829.49 1763.7 1800.65 1763.44 1801.07 1780.42 1771.3 1780.18 1771.74 1795.75 1741.08 1795.54 1741.53 1809.65 1710.03 1809.51 1710.38 1816.01 1694.33 1815.91 1694.57 1822.04 1678.33 1821.95 1678.57 1827.69 1662.14 1827.61 1662.38 1832.95 1645.77 1832.88 1646.01 1837.83 1629.23 1837.76 1629.47 1842.31 1612.52 1842.25 1612.76 1846.39 1595.64 1846.33 1595.89 1850.06 1578.62 1850.01 1578.87 1853.32 1561.43 1853.28 1561.69 1856.17 1544.11 1856.13 1544.36 1858.59 1526.64 1858.55 1526.89 1860.58 1509.03 1860.55 1509.29 1862.14 1491.3 1862.12 1491.56 1863.25 1473.44 1863.24 1473.7 1863.93 1455.46 1863.92 1455.72 1864.15 1437.37 1864.15 1437.63 1863.92 1419.28 1863.93 1419.54 1863.24 1401.3 1863.25 1401.56 1862.12 1383.44 1862.14 1383.7 1860.55 1365.71 1860.58 1365.97 1858.55 1348.11 1858.59 1348.36 1856.13 1330.64 1856.17 1330.89 1853.28 1313.31 1853.32 1313.57 1850.01 1296.13 1850.06 1296.38 1846.33 1279.11 1846.39 1279.35 1842.25 1262.24 1842.31 1262.48 1837.76 1245.53 1837.83 1245.77 1832.88 1228.99 1832.95 1229.23 1827.61 1212.62 1827.69 1212.86 1821.95 1196.43 1822.04 1196.67 1815.91 1180.43 1816.01 1180.67 1809.51 1164.62 1809.65 1164.96 1795.54 1133.47 1795.75 1133.92 1780.18 1103.26 1780.42 1103.7 1763.44 1073.93 1763.7 1074.35 1745.36 1045.51 1745.64 1045.92 1725.98 1018.04 1726.27 1018.44 1705.35 991.576 1705.66 991.957 1683.5 966.159 1683.83 966.524 1660.49 941.831 1660.83 942.18 1636.35 918.638 1636.71 918.971 1611.13 896.624 1611.51 896.94 1584.88 875.832 1585.27 876.13 1557.63 856.308 1558.05 856.587 1529.44 838.094 1529.87 838.355 1500.35 821.235 1500.79 821.476 1470.39 805.774 1470.73 805.942 1455.21 798.637 1455.45 798.742 1439.73 791.809 1439.96 791.908 1424.05 785.352 1424.29 785.446 1408.19 779.272 1408.43 779.361 1392.14 773.575 1392.38 773.658 1375.91 768.266 1376.16 768.343 1359.52 763.35 1359.76 763.421 1342.95 758.833 1343.2 758.898 1326.23 754.72 1326.48 754.779 1309.35 751.017 1309.6 751.07 1292.32 747.73 1292.58 747.776 1275.14 744.864 1275.4 744.903 1257.83 742.424 1258.09 742.457 1240.38 740.415 1240.64 740.442 1222.8 738.844 1223.07 738.865 1205.1 737.716 1205.37 737.73 1187.28 737.037 1187.55 737.044 1169.35 736.811ZM454.098 1201.32 525.644 1147.87 536.959 1236.46C537.681 1242.11 533.686 1247.27 528.037 1247.99 522.387 1248.72 517.222 1244.72 516.501 1239.07L507.425 1168.02 523.827 1174.97 466.443 1217.85C461.88 1221.26 455.418 1220.32 452.009 1215.76 448.6 1211.2 449.535 1204.73 454.098 1201.32Z" fill="url(#fill1)" fill-rule="nonzero"/></g></svg>